<svg width="24" height="24" viewBox="0 0 24 24" fill="none" xmlns="http://www.w3.org/2000/svg">
<path d="M3.84094 1.44531C2.17534 1.44531 0.965625 2.44345 0.965625 3.81625C0.965625 5.19385 2.20414 6.23594 3.84094 6.23594C5.50654 6.23594 6.71625 5.21853 6.71625 3.78813C6.63945 2.41053 5.45374 1.44531 3.84094 1.44531ZM1.44094 7.20063C1.17694 7.20063 0.960938 7.41663 0.960938 7.68063V21.6006C0.960938 21.8646 1.17694 22.0806 1.44094 22.0806H6.24094C6.50494 22.0806 6.72094 21.8646 6.72094 21.6006V7.68063C6.72094 7.41663 6.50494 7.20063 6.24094 7.20063H1.44094ZM8.64094 7.20063C8.37694 7.20063 8.16094 7.41663 8.16094 7.68063V21.6006C8.16094 21.8646 8.37694 22.0806 8.64094 22.0806H12.9609C13.2259 22.0806 13.4409 21.8656 13.4409 21.6006V14.4006V14.2806V14.1606C13.4409 13.023 14.3148 12.0964 15.4284 12.01C15.486 12.0004 15.5433 12.0006 15.6009 12.0006C15.6585 12.0006 15.7158 12.0004 15.7734 12.01C16.887 12.0964 17.7609 13.023 17.7609 14.1606V21.6006C17.7609 21.8656 17.976 22.0806 18.2409 22.0806H22.5609C22.8249 22.0806 23.0409 21.8646 23.0409 21.6006V13.4406C23.0409 10.335 21.3749 7.20063 17.6597 7.20063C15.9701 7.20063 14.6937 7.85354 13.9209 8.39594V7.68063C13.9209 7.41663 13.7049 7.20063 13.4409 7.20063H8.64094Z" fill="black"></path>
</svg>