<svg width="24" height="24" viewBox="0 0 24 24" fill="none" xmlns="http://www.w3.org/2000/svg">
<path d="M21.5742 6.186C21.3442 5.326 20.6662 4.648 19.8062 4.418C18.2462 4 11.9922 4 11.9922 4C11.9922 4 5.73819 4 4.17819 4.418C3.31819 4.648 2.64019 5.326 2.41019 6.186C1.99219 7.746 1.99219 12 1.99219 12C1.99219 12 1.99219 16.254 2.41019 17.814C2.64019 18.674 3.31819 19.352 4.17819 19.582C5.73819 20 11.9922 20 11.9922 20C11.9922 20 18.2462 20 19.8062 19.582C20.6672 19.352 21.3442 18.674 21.5742 17.814C21.9922 16.254 21.9922 12 21.9922 12C21.9922 12 21.9922 7.746 21.5742 6.186ZM9.99219 14.598V9.402C9.99219 9.017 10.4092 8.777 10.7422 8.969L15.2422 11.567C15.5752 11.759 15.5752 12.241 15.2422 12.433L10.7422 15.031C10.4092 15.224 9.99219 14.983 9.99219 14.598Z" fill="black"></path>
</svg>